<svg width="28" height="28" viewBox="0 0 28 28" fill="none" xmlns="http://www.w3.org/2000/svg">
<path d="M14 27C21.1797 27 27 21.1797 27 14C27 6.8203 21.1797 1 14 1C6.8203 1 1 6.8203 1 14C1 21.1797 6.8203 27 14 27Z" stroke="white" stroke-width="2" stroke-linecap="round" stroke-linejoin="round"/>
<path d="M10.2168 10.1C10.5224 9.23113 11.1257 8.4985 11.9197 8.03183C12.7138 7.56517 13.6474 7.39458 14.5551 7.55028C15.4629 7.70599 16.2863 8.17794 16.8794 8.88255C17.4725 9.58715 17.7972 10.4789 17.7958 11.4C17.7958 13.6168 14.8353 14.9733 13.9997 15.3V17.25" stroke="white" stroke-width="2" stroke-linejoin="round"/>
<path d="M14 20.5H14.013" stroke="white" stroke-width="2.5" stroke-linecap="round" stroke-linejoin="round"/>
</svg>
