<svg width="48" height="47" viewBox="0 0 48 47" fill="none" xmlns="http://www.w3.org/2000/svg">
<path d="M9.36564 12.713C9.36564 6.17141 15.7786 0.868408 23.6895 0.868408C31.6003 0.868408 38.0133 6.17141 38.0133 12.713V20.8172C38.0133 25.7368 39.3984 30.5888 42.059 34.989L45.9291 41.3894C46.6548 42.5896 45.3167 43.9328 43.7532 43.5737C38.1641 42.2899 31.0232 44.447 25.3609 46.4126C24.2779 46.7885 23.101 46.7885 22.018 46.4126C16.3557 44.447 9.21485 42.2899 3.62571 43.5737C2.06225 43.9328 0.724161 42.5896 1.44984 41.3894L5.31987 34.989C7.98049 30.5888 9.36564 25.7368 9.36564 20.8172V12.713Z" fill="#AF2A23"/>
<path d="M14.9614 17.0768L28.6762 23.3108L14.9614 29.5448V17.0768Z" fill="white"/>
<rect x="28.6763" y="17.0768" width="2.4936" height="12.468" fill="white"/>
<path d="M7.27193 17.4456L9.9744 18.947V28.9214L9.0303 28.0822C5.94762 25.342 3.41612 22.0388 1.57159 18.3498L1.11493 17.4365C0.390319 15.9872 0.143484 14.3457 0.409858 12.7474C0.533083 12.0081 1.18335 11.4662 1.9329 11.4662C2.62812 11.4662 3.25134 11.9364 3.44233 12.6048C4.02751 14.653 5.40988 16.4111 7.27193 17.4456Z" fill="#AF2A23"/>
<path d="M40.1065 17.4456L37.404 18.947V28.9214L38.3481 28.0822C41.4308 25.342 43.9623 22.0388 45.8068 18.3498L46.2635 17.4365C46.9881 15.9872 47.2349 14.3457 46.9686 12.7474C46.8453 12.0081 46.1951 11.4662 45.4455 11.4662C44.7503 11.4662 44.1271 11.9364 43.9361 12.6048C43.3509 14.653 41.9685 16.4111 40.1065 17.4456Z" fill="#AF2A23"/>
</svg>
